#N canvas 66 179 450 300 10;
#X obj 127 45 adc~;
#X obj 292 56 loadbang;
#X obj 292 83 delay 300;
#X msg 292 109 \; pd dsp 1 \;;
#X obj 88 178 *~ 0.75;
#X obj 149 178 *~ 0.75;
#X obj 89 243 dac~;
#X obj 149 116 hip~ 500;
#X obj 88 116 hip~ 500;
#X connect 0 0 8 0;
#X connect 0 1 7 0;
#X connect 1 0 2 0;
#X connect 2 0 3 0;
#X connect 4 0 6 0;
#X connect 5 0 6 1;
#X connect 7 0 5 0;
#X connect 8 0 4 0;
